<?xml version="1.0" encoding="utf-8"?>
<!-- Generator: Adobe Illustrator 27.0.0, SVG Export Plug-In . SVG Version: 6.00 Build 0)  -->
<svg version="1.1" id="_x37_" xmlns="http://www.w3.org/2000/svg" xmlns:xlink="http://www.w3.org/1999/xlink" x="0px" y="0px"
	 viewBox="0 0 3269 1133.9" style="enable-background:new 0 0 3269 1133.9;" xml:space="preserve">
<style type="text/css">
	.st0{fill:#FFCC0A;}
	.st1{fill:#1C3E77;}
</style>
<g>
	<rect x="0" y="0" class="st0" width="3269" height="1133.9"/>
	<path class="st1" d="M557.9,577.8c-38.2,17.9-75,36-142.5,36c-149.9,0-232.7-106.4-232.7-211.5c0-100.2,66.4-218.3,235.7-218.3
		c71.1,0,112.9,21.8,135,31.3v138c-17.6-11.1-59.7-44-112.9-45.4c-74.4-2-99.3,55.5-99.3,90.7c0,57.9,49.5,91.9,106.5,91.9
		c49.7,0,90.6-31.8,110.3-42V577.8z"/>
	<path class="st1" d="M767.1,613c-117,0-184.9-90.8-184.9-166.6c0-74.7,67.3-166,185.5-166c116.5,0,184.9,89,184.9,165.4
		C952.7,522.8,884.2,613,767.1,613 M767.1,389.7c-20.4,0-49.4,17.3-49.4,57.3c0,36.1,27.2,57.7,49.4,57.7
		c21.4,0,48.1-19.3,48.1-57.7C815.3,412.7,789.3,389.7,767.1,389.7"/>
	<path class="st1" d="M988.1,607V286.3h133.6v27.5c35.4-27.1,65.7-33.6,104.7-33.6c26,0,72.9,21.6,92.1,76
		c7.2,20.3,8.9,45.4,8.9,84.8v166h-133.6V448.2c0-23.9-2.1-53.2-31.9-53.2c-13.5,0-35.2,16.9-40.2,26.9V607H988.1z"/>
	<path class="st1" d="M1723.7,196.4V608l-151.1,1c-62.1,0-116.4,3.9-161.4-45.8c-30.3-33.6-44.2-72.7-44.2-124.2
		c0-92,69.6-156.7,154-156.7c29.9,0,56.7,6.9,66.2,9.9v-95.8H1723.7z M1587.2,402.2c-8.4-4.2-20.9-3.9-32.6-3.9
		c-22.5,0-48.3,17.2-48.3,48.6c0,29,25.5,47,48.1,47c9.6,0,19.7,0.1,32.8-2.3V402.2z"/>
	<path class="st1" d="M2090.9,584.1c-30.5,13.1-82.4,30.8-149.8,30.8c-134.4,0-182.7-89-182.7-170c0-100.9,88.1-162.7,174.1-162.7
		c82.4,0,141,63.3,154.7,114.7c7.1,28.1,9.1,59.4,8.5,77.9h-207.5c1.2,10.1,3,17.3,10.2,27.2c17.4,23.7,41.8,25.9,68.9,25.9
		c53.2,0,106.3-21,123.6-29.4V584.1z M1977.9,422.8c0-26.4-13.8-57.6-46.1-57.6c-35,0-47.5,33.3-47.5,57.6H1977.9z"/>
	<path class="st1" d="M2409,593.9c-12.6,5.4-51.7,21-101.2,21c-112.4,0-182.1-72.7-182.1-168.6c0-68.1,49-165.1,182.1-165.1
		c40,0,76.7,6.8,98.8,14v121.2c-20.9-11.9-52.2-19.1-76.1-19.1c-29.3,0-66.5,17-66.5,49c0,29.9,25.2,51.1,65.9,51.1
		c24.5,0,50.4-5.4,79.1-17.3V593.9z"/>
	<path class="st1" d="M2426.3,406.7v-47.1l160.9-169h28.7v129.3h89.4v86.8h-89.4v40.3c0,31.1-3.9,53.1,36.9,53.1
		c19.7,0,42.8-13.7,61.1-24.7v109.8c-48,22.6-82.2,27.8-107.6,27.8c-27.5,0-91.9-4.8-117.6-56.1c-10.7-21.5-10.2-51.4-10.2-66.3
		v-83.9H2426.3z"/>
	<path class="st1" d="M2754.7,340.1c47.2-37,92.3-59.7,154.4-59.7c66.9,0,102.1,29.9,117.1,50.8c18.5,26.3,20.4,60.9,20.4,75.9v60.5
		c0,35.8,0.7,46,35.4,43L3053.1,613l-27.5,0.9c-59.1,0-75.3-16.5-86-26.6c-19.1,10.8-46,25.7-93.2,25.7
		c-100.8,0-99.7-67.2-99.7-74.9c-0.3-62.9,63.2-82.5,86.5-90.2c48.3-15.8,56.6-18.6,76.9-28.8l1-9c0-14.9-5.7-24.3-24.1-24.8
		c-59.6-1.8-112.1,45.7-132.4,69.8V340.1z M2912.1,481.7c-46.5,14.7-59.9,25.8-60.5,45.1c-0.5,19.7,18.3,25.8,28.3,26.2
		c13.1,0.4,28.2-4.1,30.7-11.7c2-6.2,1.4-3,1.4-20.3V481.7z"/>
</g>
<g>
	<path class="st1" d="M603.4,876.6l20.1-18.5c2.6,2.7,5.6,5.7,9.1,8.9c3.5,3.2,7.7,5.9,12.6,8.2c4.9,2.3,10.5,3.4,16.9,3.4
		c9,0,15.7-2.1,20-6.3c4.3-4.2,6.5-9.1,6.5-14.8c0-6.6-2.7-11.7-8-15.3c-5.3-3.7-14.9-6.8-28.6-9.4c-9.3-1.8-17-5-23-9.4
		c-6-4.4-10.5-9.7-13.5-15.9s-4.5-12.6-4.5-19.3c0-7.8,1.9-15,5.8-21.6c3.9-6.6,9.8-12,17.6-16.1c7.9-4.1,17.7-6.2,29.6-6.2
		c8.1,0,15,0.9,20.8,2.6c5.8,1.8,10.6,3.9,14.5,6.4s6.9,5,9,7.3c2.1,2.4,3.7,4.1,4.6,5.1l-19,17.8c-0.9-0.9-2.7-2.5-5.4-4.8
		c-2.7-2.3-6.1-4.4-10.3-6.3c-4.2-1.9-9.3-2.9-15.2-2.9c-7.9,0-13.8,1.9-17.5,5.7c-3.7,3.8-5.6,7.6-5.6,11.4c0,5.3,2.2,9.7,6.5,13.1
		c4.3,3.4,12.8,6.4,25.3,9c7.9,1.7,15.4,4.4,22.3,8.1c6.9,3.7,12.5,8.9,16.8,15.6c4.3,6.6,6.4,15.1,6.4,25.5
		c0,8.8-2.4,16.8-7.1,23.9c-4.7,7.1-11.2,12.7-19.6,16.8c-8.3,4.1-17.7,6.2-28.2,6.2c-10.1,0-18.9-1.5-26.6-4.6
		c-7.7-3-14.3-6.8-19.7-11.3C610.9,884.8,606.6,880.5,603.4,876.6z"/>
	<path class="st1" d="M729.4,941.3l12.1-19c1.5,1.2,3.2,2.4,5,3.5c1.8,1.1,4.1,1.7,6.9,1.7c3.7,0,6.7-1.5,9.1-4.6
		c2.4-3.1,4.9-7.8,7.3-14.2l3.4-8.7l-48.3-106.3h31.1l30.6,73.4l27-73.4h29.5L798.5,901c-2.1,5.2-4.3,10.6-6.5,16.4
		c-2.2,5.7-4.8,11-7.8,15.8s-6.7,8.7-11.3,11.8c-4.6,3-10.4,4.6-17.6,4.6c-6.1,0-11.2-0.8-15.2-2.3
		C736,945.7,732.5,943.7,729.4,941.3z"/>
	<path class="st1" d="M849,888l16.2-17.6c3.4,3.4,7.6,6.1,12.7,8.3c5.1,2.2,10.9,3.3,17.5,3.3c5.8,0,10.4-0.8,14-2.4
		c3.5-1.6,5.3-4.1,5.3-7.4c0-2.1-0.7-4-1.9-5.6c-1.3-1.6-3.9-3.2-7.7-4.8c-3.8-1.6-9.7-3.3-17.6-5.1c-4.7-1.2-9.8-3-15.1-5.5
		c-5.3-2.4-9.9-5.9-13.6-10.4c-3.7-4.5-5.6-10.2-5.6-17c0-7.2,2.2-13.3,6.5-18.3s9.9-8.8,16.7-11.4c6.8-2.6,13.8-3.9,20.9-3.9
		c9.5,0,17.5,1,24.2,3c6.7,2,12.7,5,17.8,8.9l-14,19c-2.9-2.1-6.7-4.1-11.5-5.8c-4.8-1.8-10.3-2.6-16.6-2.6c-6.3,0-10.7,1-13.3,2.9
		c-2.6,1.9-3.9,4.2-3.9,7c0,3.4,2.1,6,6.3,7.9c4.2,1.9,10.7,3.9,19.6,6.1c10.8,2.4,19.5,6.2,26,11.3c6.5,5.1,9.7,12.8,9.7,23.2
		c0,6.9-2.1,12.8-6.3,18c-4.2,5.1-9.8,9-16.7,11.8c-6.9,2.7-14.6,4.1-23,4.1c-9.9,0-18.9-1.4-27.1-4.2
		C860.4,897.7,853.9,893.5,849,888z"/>
	<path class="st1" d="M972.7,864.5v-48.7h-18.3v-22h18.3V759h27v34.8h28.8v22h-28.8v46.9c0,6.1,1,10.8,3.1,14.1
		c2.1,3.3,5.4,4.9,9.9,4.9c4.3,0,7.7-0.6,10.2-1.8c2.5-1.2,4.9-2.7,7.2-4.3l11.4,16.7c-5.3,4.3-10.6,7.4-15.8,9.4
		c-5.2,2-11,3-17.4,3c-13.1,0-22.3-3.7-27.7-11C975.4,886.2,972.7,876.5,972.7,864.5z"/>
	<path class="st1" d="M1137.2,869l14.6,16.5c-0.5,0.5-1.7,1.7-3.8,3.8c-2.1,2.1-5,4.3-8.9,6.6c-3.9,2.4-8.8,4.4-14.9,6.2
		c-6,1.8-13.2,2.6-21.6,2.6c-11.4,0-21.4-2.5-29.8-7.4s-15.1-11.9-19.8-20.7c-4.7-8.8-7.1-19-7.1-30.4c0-10.5,2.3-20,7-28.5
		c4.6-8.5,11.1-15.2,19.2-20.1c8.2-5,17.6-7.4,28.2-7.4c9.9,0,18.2,1.8,24.9,5.3c6.7,3.5,12.1,8.2,16.2,14.1
		c4.1,5.9,7.1,12.5,8.9,19.8c1.8,7.3,2.7,14.8,2.7,22.4v3.9h-80c0,5.2,1.5,9.7,4.5,13.6c3,3.9,6.7,6.9,11.3,9.1
		c4.6,2.2,9.2,3.3,14,3.3c7,0,12.8-0.8,17.4-2.4c4.6-1.6,8.2-3.4,11-5.4C1134,871.9,1136,870.3,1137.2,869z M1072.9,836.1h52.6
		c0-3.7-1-7.3-2.9-10.9c-1.9-3.6-4.7-6.6-8.3-8.9c-3.7-2.4-8.3-3.5-14-3.5c-5.9,0-10.9,1.2-15,3.5c-4,2.4-7.1,5.3-9.3,8.9
		C1074,828.8,1072.9,832.4,1072.9,836.1z"/>
	<path class="st1" d="M1174,901V793.8h25.8l0.7,12.1c2.6-3.2,6.3-6.4,11.2-9.6c4.9-3.2,11.5-4.8,19.9-4.8c14.2,0,24.9,5.2,32.2,15.6
		c5.5-5.6,11.1-9.6,16.9-12c5.8-2.4,12.4-3.5,19.9-3.5c13.6,0,24,4,31.2,12c7.2,8,10.9,18.8,10.9,32.4V901h-27v-65
		c0-6.7-1.7-12-5.1-15.8c-3.4-3.8-8.1-5.7-14.1-5.7c-7.5,0-13.5,2.7-18,8.2c-4.5,5.5-6.7,12.2-6.7,20.1V901h-27v-65
		c0-6.7-1.7-12-5.1-15.8c-3.4-3.8-8.1-5.7-14.1-5.7c-7.5,0-13.5,2.7-18,8.2c-4.5,5.5-6.7,12.2-6.7,20.1V901H1174z"/>
	<path class="st1" d="M1455.1,869l14.6,16.5c-0.5,0.5-1.7,1.7-3.8,3.8c-2.1,2.1-5,4.3-8.9,6.6c-3.9,2.4-8.8,4.4-14.9,6.2
		c-6,1.8-13.2,2.6-21.6,2.6c-11.4,0-21.4-2.5-29.8-7.4s-15.1-11.9-19.8-20.7c-4.7-8.8-7.1-19-7.1-30.4c0-10.5,2.3-20,7-28.5
		c4.6-8.5,11.1-15.2,19.2-20.1c8.2-5,17.6-7.4,28.2-7.4c9.9,0,18.2,1.8,24.9,5.3c6.7,3.5,12.1,8.2,16.2,14.1
		c4.1,5.9,7.1,12.5,8.9,19.8c1.8,7.3,2.7,14.8,2.7,22.4v3.9h-80c0,5.2,1.5,9.7,4.5,13.6c3,3.9,6.7,6.9,11.3,9.1
		c4.6,2.2,9.2,3.3,14,3.3c7,0,12.8-0.8,17.4-2.4c4.6-1.6,8.2-3.4,11-5.4C1451.9,871.9,1453.8,870.3,1455.1,869z M1390.8,836.1h52.6
		c0-3.7-1-7.3-2.9-10.9c-1.9-3.6-4.7-6.6-8.3-8.9c-3.7-2.4-8.3-3.5-14-3.5c-5.9,0-10.9,1.2-15,3.5c-4,2.4-7.1,5.3-9.3,8.9
		C1391.9,828.8,1390.8,832.4,1390.8,836.1z"/>
	<path class="st1" d="M1486.2,933.8l14.4-32.7h-11.7v-31.8h32.7v31.3l-19.4,33.2H1486.2z"/>
	<path class="st1" d="M1665.9,901l-0.7-10.5c-2.7,3.1-6.7,6.2-12,9.4c-5.3,3.2-11.9,4.8-20,4.8c-7.8,0-15.2-2.1-22.4-6.4
		c-7.2-4.3-13.1-10.6-17.7-18.9c-4.7-8.3-7-18.3-7-30.1c0-8.4,1.2-15.8,3.7-22.2c2.4-6.4,5.5-11.7,9.1-16c4.1-4.9,8.7-8.7,13.7-11.5
		c5-2.8,10-4.9,14.9-6.2c4.9-1.3,9.1-1.9,12.6-1.9c4.7,0,8.4,0.2,11.1,0.6c2.7,0.4,5,0.9,7.1,1.6c2.1,0.7,4.4,1.6,7,2.6v-47.8h26.8
		V901H1665.9z M1665.2,853.5v-32.9c-4.7-3.8-12.1-5.7-22.2-5.7c-5.2,0-9.6,1-13.2,3.1c-3.6,2.1-6.7,4.8-9.3,8.1
		c-4.9,6.4-7.3,14.2-7.3,23.3c0,9.1,2.3,16.8,6.9,22.9c4.6,6.1,11.2,9.1,19.9,9.1c6.2,0,11.2-1.4,14.9-4.3c3.7-2.9,6.3-6.5,7.9-10.9
		C1664.4,861.8,1665.2,857.6,1665.2,853.5z"/>
	<path class="st1" d="M1718.8,776.9v-28.4h28.8v28.4H1718.8z M1719.7,901V793.8h27V901H1719.7z"/>
	<path class="st1" d="M1860.5,869l14.6,16.5c-0.5,0.5-1.7,1.7-3.8,3.8c-2.1,2.1-5,4.3-8.9,6.6c-3.9,2.4-8.8,4.4-14.9,6.2
		c-6,1.8-13.2,2.6-21.6,2.6c-11.4,0-21.4-2.5-29.8-7.4s-15.1-11.9-19.8-20.7c-4.7-8.8-7.1-19-7.1-30.4c0-10.5,2.3-20,7-28.5
		c4.6-8.5,11.1-15.2,19.2-20.1c8.2-5,17.6-7.4,28.2-7.4c9.9,0,18.2,1.8,24.9,5.3c6.7,3.5,12.1,8.2,16.2,14.1
		c4.1,5.9,7.1,12.5,8.9,19.8c1.8,7.3,2.7,14.8,2.7,22.4v3.9h-80c0,5.2,1.5,9.7,4.5,13.6c3,3.9,6.7,6.9,11.3,9.1
		c4.6,2.2,9.2,3.3,14,3.3c7,0,12.8-0.8,17.4-2.4c4.6-1.6,8.2-3.4,11-5.4C1857.3,871.9,1859.3,870.3,1860.5,869z M1796.3,836.1h52.6
		c0-3.7-1-7.3-2.9-10.9c-1.9-3.6-4.7-6.6-8.3-8.9c-3.7-2.4-8.3-3.5-14-3.5c-5.9,0-10.9,1.2-15,3.5c-4,2.4-7.1,5.3-9.3,8.9
		C1797.3,828.8,1796.3,832.4,1796.3,836.1z"/>
	<path class="st1" d="M1938.8,897.6V748.5h27v52.6c1.8-1.8,5.4-3.9,10.6-6.2s11.5-3.4,18.6-3.4c10.4,0,19.2,2.5,26.5,7.4
		c7.3,5,12.9,11.5,16.8,19.8c3.9,8.2,5.8,17.4,5.8,27.4c0,10.7-2.5,20.4-7.4,29.3c-5,8.8-11.9,15.9-20.9,21.3c-9,5.3-19.7,8-32.2,8
		c-9.3,0-17.9-0.8-25.7-2.3C1950,900.9,1943.6,899.3,1938.8,897.6z M1965.7,838.6v40.5c2.1,0.6,4.3,1.1,6.6,1.6
		c2.3,0.5,5.9,0.7,10.7,0.7c7.3,0,13.5-1.6,18.4-4.9c5-3.3,8.7-7.5,11.3-12.8c2.6-5.3,3.9-10.9,3.9-16.8c0-5.5-0.9-10.7-2.7-15.6
		c-1.8-4.9-4.7-8.8-8.5-11.8c-3.8-3-8.8-4.5-14.9-4.5c-8.1,0-14.3,2.1-18.5,6.3C1967.9,825.5,1965.7,831.3,1965.7,838.6z"/>
	<path class="st1" d="M2151.9,869l14.6,16.5c-0.5,0.5-1.7,1.7-3.8,3.8c-2.1,2.1-5,4.3-8.9,6.6c-3.9,2.4-8.8,4.4-14.9,6.2
		c-6,1.8-13.2,2.6-21.6,2.6c-11.4,0-21.4-2.5-29.8-7.4s-15.1-11.9-19.8-20.7c-4.7-8.8-7.1-19-7.1-30.4c0-10.5,2.3-20,7-28.5
		c4.6-8.5,11.1-15.2,19.2-20.1c8.2-5,17.6-7.4,28.2-7.4c9.9,0,18.2,1.8,24.9,5.3c6.7,3.5,12.1,8.2,16.2,14.1
		c4.1,5.9,7.1,12.5,8.9,19.8c1.8,7.3,2.7,14.8,2.7,22.4v3.9h-80c0,5.2,1.5,9.7,4.5,13.6c3,3.9,6.7,6.9,11.3,9.1
		c4.6,2.2,9.2,3.3,14,3.3c7,0,12.8-0.8,17.4-2.4c4.6-1.6,8.2-3.4,11-5.4C2148.7,871.9,2150.7,870.3,2151.9,869z M2087.6,836.1h52.6
		c0-3.7-1-7.3-2.9-10.9c-1.9-3.6-4.7-6.6-8.3-8.9c-3.7-2.4-8.3-3.5-14-3.5c-5.9,0-10.9,1.2-15,3.5c-4,2.4-7.1,5.3-9.3,8.9
		C2088.7,828.8,2087.6,832.4,2087.6,836.1z"/>
	<path class="st1" d="M2194,938.3l12.1-19.9c8.1,5.5,18.5,8.2,31.3,8.2c7,0,12.9-2.2,17.6-6.5c4.7-4.3,7.1-10.3,7.1-17.7v-11.7
		c-3.7,2.9-7.7,5.3-12,7.3c-4.3,2-10.1,3-17.3,3c-10.2,0-19-2.2-26.4-6.7c-7.4-4.5-13-10.7-16.9-18.5c-3.9-7.9-5.8-16.8-5.8-26.9
		c0-10.7,2.5-20.4,7.4-29c5-8.7,12-15.6,21-20.7c9.1-5.1,19.8-7.7,32.1-7.7c9.3,0,17.9,0.8,25.8,2.3c7.9,1.5,14.3,3.1,19,4.8v104.3
		c0,9.9-2.2,18.4-6.6,25.4c-4.4,7-10.5,12.3-18.2,15.9c-7.7,3.6-16.5,5.4-26.4,5.4c-11.1,0-20-1-26.5-3
		C2204.8,944.6,2199,941.8,2194,938.3z M2262.1,855.5v-38.4c-2.1-0.8-4.3-1.3-6.6-1.7c-2.3-0.4-5.9-0.6-10.7-0.6
		c-7.3,0-13.5,1.6-18.4,4.7c-5,3.1-8.7,7.2-11.3,12.2c-2.6,5-3.9,10.5-3.9,16.5c0,8.2,2.1,15.2,6.2,20.8c4.1,5.6,10.7,8.5,19.9,8.5
		C2253.8,877.5,2262.1,870.2,2262.1,855.5z"/>
	<path class="st1" d="M2401.9,869l14.6,16.5c-0.5,0.5-1.7,1.7-3.8,3.8c-2.1,2.1-5,4.3-8.9,6.6c-3.9,2.4-8.8,4.4-14.9,6.2
		c-6,1.8-13.2,2.6-21.6,2.6c-11.4,0-21.4-2.5-29.8-7.4s-15.1-11.9-19.8-20.7c-4.7-8.8-7.1-19-7.1-30.4c0-10.5,2.3-20,7-28.5
		c4.6-8.5,11.1-15.2,19.2-20.1c8.2-5,17.6-7.4,28.2-7.4c9.9,0,18.2,1.8,24.9,5.3c6.7,3.5,12.1,8.2,16.2,14.1
		c4.1,5.9,7.1,12.5,8.9,19.8c1.8,7.3,2.7,14.8,2.7,22.4v3.9h-80c0,5.2,1.5,9.7,4.5,13.6c3,3.9,6.7,6.9,11.3,9.1
		c4.6,2.2,9.2,3.3,14,3.3c7,0,12.8-0.8,17.4-2.4c4.6-1.6,8.2-3.4,11-5.4C2398.7,871.9,2400.7,870.3,2401.9,869z M2337.6,836.1h52.6
		c0-3.7-1-7.3-2.9-10.9c-1.9-3.6-4.7-6.6-8.3-8.9c-3.7-2.4-8.3-3.5-14-3.5c-5.9,0-10.9,1.2-15,3.5c-4,2.4-7.1,5.3-9.3,8.9
		C2338.7,828.8,2337.6,832.4,2337.6,836.1z"/>
	<path class="st1" d="M2438.9,776.9v-28.4h28.8v28.4H2438.9z M2439.8,901V793.8h27V901H2439.8z"/>
	<path class="st1" d="M2489.2,888l16.2-17.6c3.4,3.4,7.6,6.1,12.7,8.3c5.1,2.2,10.9,3.3,17.5,3.3c5.8,0,10.4-0.8,14-2.4
		c3.5-1.6,5.3-4.1,5.3-7.4c0-2.1-0.7-4-1.9-5.6c-1.3-1.6-3.9-3.2-7.7-4.8c-3.8-1.6-9.7-3.3-17.6-5.1c-4.7-1.2-9.8-3-15.1-5.5
		c-5.3-2.4-9.9-5.9-13.6-10.4c-3.7-4.5-5.6-10.2-5.6-17c0-7.2,2.2-13.3,6.5-18.3c4.3-5,9.9-8.8,16.7-11.4c6.8-2.6,13.8-3.9,20.9-3.9
		c9.5,0,17.5,1,24.2,3c6.7,2,12.7,5,17.8,8.9l-14,19c-2.9-2.1-6.7-4.1-11.5-5.8c-4.8-1.8-10.3-2.6-16.6-2.6c-6.3,0-10.7,1-13.3,2.9
		c-2.6,1.9-3.9,4.2-3.9,7c0,3.4,2.1,6,6.3,7.9c4.2,1.9,10.7,3.9,19.6,6.1c10.8,2.4,19.5,6.2,26,11.3c6.5,5.1,9.7,12.8,9.7,23.2
		c0,6.9-2.1,12.8-6.3,18c-4.2,5.1-9.8,9-16.7,11.8c-6.9,2.7-14.6,4.1-23,4.1c-9.9,0-18.9-1.4-27.1-4.2
		C2500.6,897.7,2494.1,893.5,2489.2,888z"/>
	<path class="st1" d="M2613,864.5v-48.7h-18.3v-22h18.3V759h27v34.8h28.8v22h-28.8v46.9c0,6.1,1,10.8,3.1,14.1
		c2.1,3.3,5.4,4.9,9.9,4.9c4.3,0,7.7-0.6,10.2-1.8c2.5-1.2,4.9-2.7,7.2-4.3l11.4,16.7c-5.3,4.3-10.6,7.4-15.8,9.4
		c-5.2,2-11,3-17.4,3c-13.1,0-22.3-3.7-27.7-11C2615.6,886.2,2613,876.5,2613,864.5z"/>
	<path class="st1" d="M2777.4,869l14.6,16.5c-0.5,0.5-1.7,1.7-3.8,3.8c-2.1,2.1-5,4.3-8.9,6.6c-3.9,2.4-8.8,4.4-14.9,6.2
		c-6,1.8-13.2,2.6-21.6,2.6c-11.4,0-21.4-2.5-29.8-7.4s-15.1-11.9-19.8-20.7c-4.7-8.8-7.1-19-7.1-30.4c0-10.5,2.3-20,7-28.5
		c4.6-8.5,11.1-15.2,19.2-20.1c8.2-5,17.6-7.4,28.2-7.4c9.9,0,18.2,1.8,24.9,5.3c6.7,3.5,12.1,8.2,16.2,14.1
		c4.1,5.9,7.1,12.5,8.9,19.8c1.8,7.3,2.7,14.8,2.7,22.4v3.9h-80c0,5.2,1.5,9.7,4.5,13.6c3,3.9,6.7,6.9,11.3,9.1
		c4.6,2.2,9.2,3.3,14,3.3c7,0,12.8-0.8,17.4-2.4c4.6-1.6,8.2-3.4,11-5.4C2774.2,871.9,2776.2,870.3,2777.4,869z M2713.1,836.1h52.6
		c0-3.7-1-7.3-2.9-10.9c-1.9-3.6-4.7-6.6-8.3-8.9c-3.7-2.4-8.3-3.5-14-3.5c-5.9,0-10.9,1.2-15,3.5c-4,2.4-7.1,5.3-9.3,8.9
		C2714.2,828.8,2713.1,832.4,2713.1,836.1z"/>
	<path class="st1" d="M2814.2,901V793.8h25.8l0.7,13.5c1.7-2.1,3.9-4.4,6.7-6.7c2.8-2.4,6.3-4.4,10.5-6.2c4.2-1.8,9.2-2.6,15-2.6
		c2.6,0,4.9,0.2,7,0.5c2.1,0.3,4.2,0.8,6.3,1.6l-5.5,25.4c-3.7-1.4-7.8-2.1-12.3-2.1c-7.5,0-13.9,2.4-19.2,7.1c-5.3,4.7-8,11.1-8,19
		V901H2814.2z"/>
	<path class="st1" d="M2901.6,901V793.8h25.8l0.7,12.1c2.7-3,6.7-6.2,11.9-9.5c5.2-3.3,12-4.9,20.4-4.9c13.3,0,23.4,4,30.5,12
		c7.1,8,10.6,18.8,10.6,32.4V901h-27v-65c0-6.7-1.9-12-5.6-15.8c-3.7-3.8-8.6-5.7-14.5-5.7c-7.5,0-13.6,2.7-18.5,8.2
		c-4.9,5.5-7.3,12.2-7.3,20.1V901H2901.6z"/>
	<path class="st1" d="M3029.2,901v-31.6h32.7V901H3029.2z"/>
</g>
</svg>
